<mxfile host="app.diagrams.net" modified="2024-04-17T02:30:16.791Z" agent="Mozilla/5.0 (Macintosh; Intel Mac OS X 10_15_7) AppleWebKit/537.36 (KHTML, like Gecko) Chrome/123.0.0.0 Safari/537.36" version="24.2.5" etag="fPXdzGXSCa9O1naKwlg5" type="github">
  <diagram name="第 1 页" id="vYNoO73yrVXys-hbaWDW">
    <mxGraphModel>
      <root>
        <mxCell id="0" />
        <mxCell id="1" parent="0" />
      </root>
    </mxGraphModel>
  </diagram>
</mxfile>
